<svg width="128" height="128" viewBox="0 0 128 128" fill="none" xmlns="http://www.w3.org/2000/svg">
	<rect width="128" height="128" fill="#2750A1"/>
	<path d="M0 30.9068L2.88935 23.6014H11.2295L7.26947 12.5205L12.2234 0L26.4037 37.6486H15.9477L13.5246 30.9068H0Z" transform="translate(87.5963 45)" fill="white"/>
	<path d="M38.9703 37.6486L54.1496 0H44.083L33.6988 24.3289L26.3166 0H18.5809L10.6506 24.3289L5.06147 13.2428L0 28.832L5.13832 37.6486H15.041L22.208 15.8299L29.0369 37.6486H38.9703Z" transform="translate(39.707 45)" fill="white"/>
	<path d="M9.5543 24.7234H15.7531C17.6332 24.7234 19.3033 24.5133 20.7684 24.0932L22.3719 19.1547L26.8545 5.35348C26.5113 4.81045 26.1219 4.30328 25.6865 3.8166C23.3811 1.27561 20.0154 0 15.584 0H0V37.6486H9.5543V24.7234ZM17.7561 8.66291C18.6527 9.56967 19.1035 10.7787 19.1035 12.2951C19.1035 13.8217 18.709 15.0359 17.9201 15.9324C17.0543 16.9262 15.4611 17.4232 13.1352 17.4232H9.5543V7.30533H13.1609C15.3279 7.30533 16.8596 7.75615 17.7561 8.66291Z" transform="translate(14 45)" fill="white"/>
</svg>
